<svg width="44" height="44" viewBox="0 0 44 44" fill="none" xmlns="http://www.w3.org/2000/svg">
<path d="M37.5659 6.43416C28.987 -2.14472 15.0237 -2.14472 6.44477 6.43416C2.28914 10.5914 0 16.1175 0 21.9947C0 27.8718 2.28914 33.3979 6.44477 37.5535C10.7351 41.8438 16.3702 43.9881 22.0053 43.9881C27.6403 43.9881 33.2756 41.8438 37.5658 37.5535C46.1447 28.9747 46.1447 15.0147 37.5659 6.43416ZM35.1557 35.1433C27.9046 42.3944 16.106 42.3944 8.85491 35.1433C5.34365 31.6321 3.409 26.9616 3.409 21.9947C3.409 17.0277 5.34365 12.3573 8.85491 8.8443C16.106 1.59325 27.9046 1.59497 35.1557 8.8443C42.405 16.0953 42.405 27.894 35.1557 35.1433Z" fill="#C2CFFF"/>
<path d="M29.3492 26.7054L24.5237 21.8868L29.3492 17.0681C30.0139 16.4034 30.0139 15.3245 29.3509 14.6579C28.6844 13.9898 27.6055 13.9915 26.939 14.6562L22.1102 19.4783L17.2813 14.6562C16.6148 13.9915 15.5359 13.9898 14.8694 14.6579C14.2047 15.3244 14.2047 16.4033 14.8711 17.0681L19.6967 21.8868L14.8711 26.7054C14.2047 27.3702 14.2047 28.4491 14.8694 29.1157C15.2018 29.4497 15.6399 29.615 16.0763 29.615C16.5127 29.615 16.949 29.448 17.2814 29.1173L22.1102 24.2952L26.9391 29.1173C27.2715 29.4497 27.7078 29.615 28.1442 29.615C28.5806 29.615 29.0187 29.448 29.3511 29.1157C30.0156 28.4491 30.0156 27.3702 29.3492 26.7054Z" fill="#C2CFFF"/>
</svg>
